<?xml version="1.0" encoding="UTF-8"?>
<svg xmlns="http://www.w3.org/2000/svg" xmlns:xlink="http://www.w3.org/1999/xlink" viewBox="0 0 1002.51 212.55">
  <defs>
    <style>
      .cls-1 {
        isolation: isolate;
      }

      .cls-2 {
        fill: #7bb841;
      }

      .cls-3 {
        fill: url(#radial-gradient);
      }

      .cls-4 {
        font-family: Poppins-Bold, Poppins;
        font-size: 125px;
        font-weight: 700;
      }

      .cls-5 {
        mix-blend-mode: multiply;
      }
    </style>
    <radialGradient id="radial-gradient" cx="99.05" cy="76.31" fx="99.05" fy="76.31" r="122.15" gradientUnits="userSpaceOnUse">
      <stop offset="0" stop-color="#fff"/>
      <stop offset=".8" stop-color="#d9d9d9"/>
      <stop offset="1" stop-color="#fff"/>
    </radialGradient>
  </defs>
  <g class="cls-1">
    <g id="_Слой_1" data-name="Слой 1">
      <g>
        <g>
          <path class="cls-3" d="M198.61,99.3C198.61,44.46,154.15,0,99.3,0S0,44.46,0,99.3s44.46,99.3,99.3,99.3,99.3-44.46,99.3-99.3Z"/>
          <g class="cls-5">
            <path class="cls-2" d="M84.16,192.54l-.03-.05,.1,.05s-.05,0-.07,0h0ZM46,55.75c-.25,.42-2.09,1.08-2.87,1.34-.57,.19-.69,.31-1.1,.73-.16,.13-.37,.31-.54,.42-.6,.39-1.28,.62-1.88,1.01-.61,.39-1.1,.97-1.76,1.29-.04,.02-.87,.42-.86-.27l.04-.22c.07,0,.13,.02,.2,.03,.06-.47,.14-1.06,2.7-2.16l.06-.08q.17-.07,.77-.68s-.06,0-.09-.01c.83-.86,1.39-1.4,2.06-1.98,.02,0,.04,0,.06,0,.28-.26,.42-.37,.62-.51,.04,0,.1-.02,.15-.03,.04,.06,.06,.09,.26,.12,.68,.06,1.38-.15,2.05,.15,.31,.14,.28,.58,.13,.83h0Zm-3.74-1.94s-1.02-.11-.38-1.85c.02-.05,.05-.11,.07-.16-.03,0-.05,0-.08,0l-.22,.31s0-.01,0-.02c.03-.06,.06-.13,.07-.2-.29,.17-1.47,2.08-1.64,3.18-.05,.29-.17,1.07-1.53,1.84-.05,0-.11-.01-.17-.02h-.01c-.11-.01-.22-.03-.33-.04-.07-.48,.08-1.1,.52-2.16,.05,0,.1,.01,.15,.02,.82-1.91,1.07-2.48,.62-3.23-.35-.05-.69-.1-1.04-.15-1.71,.92-3.21,1.97-4.4,5.61-.34,1.03-.78,1.85-1.31,2.44l-.09,.05s0,0,.01,0c-.16,.12-.32,.22-.52,.14l-.17-.25c.12,.02,.24,.04,.37,.06-.16-.24-.43-.64,.85-3.27,0,0-.01,0-.02,0-.04,0-.08-.01-.12-.02q.44-.87,.96-2.1s.08,.01,.12,.02c.01,0,.03,0,.04,0,.75-1.79,1.07-2.36,1.61-3.09-.02,0-.05,0-.07-.01,1.48-1.52,2.78-1.41,2.79-1.41,.72,.07,1.13,.74,1.79,.94,.1,.03,.11,.03,.24-.01,.23-.06,1.08,0,1.77,.21,.07,.02,.17,.05,.23,.08,.17,.08,.25,.37,.27,.91,0,.21,.02,1.3-.38,2.2h0Zm-1.77-7c-.27,.44-1.12,1.33-1.28,1.36-.05,0-.22-.03-.39-.11-.26-.12-.5-.26-.76-.37-.2-.08-.43-.09-.63-.19-.08-.04-.14-.17-.15-.26-.02-.18,.05-.36,.03-.54-.16-.14-1.46,.34-2.05,.63-.34,.17-.53,.19-.74,.16-.86-.25,.36-1.58,.51-1.66,.4-.23,.86-.27,1.27-.45,.2-.09,.51-.23,1.44-.8,1.04-.64,1.66-1.02,1.98-.98,.08,.01,.12,.07,.14,.11,.02,.06,.02,.1,.01,.15-.01,.42-.02,.85,.13,1.45,.16,.62,.37,.78,.56,.91,.08,.06,.07,.23,.04,.33-.03,.08-.09,.19-.14,.26h0Zm-20.42-5.87c-.31,.4-.42,.53-.56,.7,.09-.29,1.03-1.55,1.58-2.27,0-.01,0-.02,0-.04,.52-.7,.91-1.49,1.43-2.19,0,.01,0,.03,0,.05,.33-.44,.71-.95,1.12-1.44,0,.01-2.18,3.4-3.56,5.19h0Zm83.57,121.51c-.05-.29-.12-.29-.19-.28v-.13c-.1-.32-.24-.75-.34-1.07-.25-.64-.13-.64-.02-.65q-1.11-1.54-4.46-2.74c-.18,0-.36,0-.54,.01-.48-.43-1.11-1.02-1.56-1.48-.45-.43-.31-.43-.16-.44-2.54-1.47-5.66-.96-8.19-2.45-.87-.44-1.02-.44-1.16-.44l-.39-.27c-1.97-1.06-2.73-1.16-4.32-.93-.76,1.29-.92,1.56-1.15,3.07-.31-.01-.73-.03-1.05-.05-.12-.21-.27-.49-.39-.7,.23-.18,.54-.42,.77-.6,.42-.52,.37-.52,.33-.52l.18-.28c.09-.29,.21-.68,.3-.98-.03-.78,.07-.78,.16-.78-1.74-2-3.6,1.06-5.5,1.13-.2-.25-.46-.58-.66-.83,.27-.37,.28-.37,.3-.37l.14-.12,.3-.12c2.82-1.09,3.02-1.56,3.54-2.82-.09,0-.18,0-.27,0-.58-1.59-.7-1.63-1.89-2,0-.14,.16-.13,.32-.13q-.25-.31-2.17-3.24c-.12,0-.25,0-.37,0l-.24-.32c-.46-.51-1.07-1.18-1.54-1.67-.1-.23,.04-.23,.18-.23q-2.73-2.62-6.97-1.82c-.44-.48-.96-1.18-1.3-1.74-.12,0-.25,0-.37-.01-.66-.78-1.38-1.52-2-2.34,.12,0,.24,0,.37,.01l-.07-.11c-.57-.31-1.74-.97-3.71-1.23,.04-.64,.22-1.48,.43-2.08-.02-.17-.09-.17-.16-.18,.11-.62,.21-1.47,.25-2.1,.08-.23,.16-.22,.24-.22l-.38-.62-.06-.05c-.34,.71-.81,1.66-1.19,2.34-.82-.55-1.45-1.35-2.3-1.86,.18,0,.36,.02,.54,.03-.6-.26-1.48-.43-2.14-.41-.58,.27-.56,.27-.53,.27-.44,.38-.8,1.15-.86,1.72-.35,.55-.44,.54-.53,.54-1.2-2.1-1.8-3.16-3.83-1.79-.27-.14-.64-.33-.91-.47-.1-.38,0-.37,.1-.37-.28-.59-.66-1.37-.97-1.95-2.94,.14-2.89,3.24-2.86,5.5-.17-.27-.39-.64-.56-.92-.23-.65-.31-.66-.39-.67-.16-.9-.3-1.68-.28-2.35,.07,0,.14,.01,.2,.02v-.11c.18-.8,.41-1.88,.56-2.68-.23-.18-.54-.42-.77-.59q-.74,.38-2.46,1.8c-1.9,1.29-2.29,3.58-3.51,5.33-.33-.02-.78-.06-1.11-.09-.27-.57-.74-1.27-1.13-1.76-.63-.44-.78-.46-.92-.48-.27-.11-.63-.26-.9-.37-.1,.15-.24,.35-.34,.5-.51,.4-1.22,.89-1.77,1.23q-1.33-.62-2.06-1.99c-.09-.01-.17-.02-.26-.04-.35-.7-.73-1.69-.95-2.44,.07,.01,.14,.02,.21,.03-.3-1.57-.3-1.6-.42-3.25-.08-.34-.14-.35-.21-.36,0-.72,0-1.67,.04-2.39,.05,0,.11,.01,.16,.02q.17-1.71-.3-3.05c-.43-.7-.53-.72-.62-.73-.38-.59-.97-1.33-1.46-1.83-.6,.21-1.36,.61-1.89,.96-.64-.31-1.51-.66-2.17-.9,0-.34,.02-.79,.03-1.12,.14-.41,.19-.4,.23-.39q.14-1.14,.05-3.33c-.05-.4-.11-.41-.16-.42q.2-1.44,.77-2.37s.06,0,.09,.01q.65-1.52,.68-3.18c-.1-.48-.16-.49-.23-.5-.08-.33-.19-.77-.28-1.1-.02,0-2.36-.82-4.07,.31-.22,1.32-.17,2.67-.36,3.99-1.74,.2-1.78,.24-2.59,1.24q-1.01-.46-1.89-2.48c.08,.02,.16,.04,.23,.05-.88-2.09-.97-2.46-1.3-4.08-.06-.01-.11-.03-.17-.04-.06-.61-.11-1.42-.12-2.04,.06-.49,.11-.48,.15-.47,.05-1.85,.07-2.1,.23-3.71-.04-.01-.08-.02-.12-.03q.22-1.39,.48-2.39s.07,.02,.11,.03c.47-1.85,.47-1.91,.61-3.62-.05-.01-.11-.03-.16-.04-.08-.64,.12-1.56,.46-2.11,.21-.23,.21-.22,.22-.22l.35-.36,.27-.18c.7-.57,1.56-1.29,2.21-2.54-.01,0-.02,0-.03,0,2.03-.26,2.71,.19,3.62,1.62,.3,.01,.69,.03,.99,.04,.31-.67,.26-.68,.21-.69l.08-.32c.23-.19,.55-.43,.78-.62q.65,.1,4-.32c.14,.62,.36,1.44,.54,2.04,.31-.07,.72-.17,1.03-.25,.96,3.27,1.36,6.66,2.1,9.98,.22,0,.51,.02,.73,.03,.46-.63,.92-1.6,1.14-2.35,.04-.49-.02-.5-.08-.5,.07-.63,.1-1.48,.06-2.12,.05-.33,.13-.32,.21-.31-.07-1.08-.13-2.15-.2-3.23-.12-.48-.2-.49-.28-.5-.07-.59-.19-1.36-.31-1.94,.11-.5,.17-.5,.24-.49,.6-1.62,.83-2.22,2.54-3.32-.01,0-.02,0-.03,0,.45-.45,1.04-1.07,1.46-1.55,.55-.62,.58-.61,.61-.61,1.89-2.3,2.04-2.49,2.51-2.83q1.87-.84,2.66-1.67c-.03-.27-.07-.62-.1-.89,.09,.01,.19,.02,.28,.03-.37-1.9-.37-1.96-.26-3.53-.07,0-.15-.02-.22-.02,.7,.11,2.54,.41,2.73-2.04,.08,0,.15,.01,.23,.02,.09-.48,.41-1.13,.79-1.43,.29-.12,.67-.28,.95-.4,.15-.41,.37-.97,.37-1.4-.06,0-.13-.01-.19-.02,1.61-1.41,3.38-.06,5.06-.29,.1-.28,.24-.65,.34-.93-.04-.59,.05-.58,.15-.57-.46-1.91-.34-2.12,.29-3.28-.03,0-.06,0-.1,0,1.19-1.07,3.18-.37,4.16-1.89,.05,0,.1,0,.15,0,.22-.23,.51-.53,.73-.76,.21,1.13,.04,2.28,.21,3.41,.33-.05,.77-.11,1.09-.16,.31-.17,.31-.17,.32-.17,2.25-1.56,5.03-1.66,7.46-2.74,.56-.61,.56-.65,.57-.69-.02-.32-.04-.74-.05-1.05-.13-.52-.21-.52-.3-.53-.06-.31-.13-.72-.19-1.03-.55,.21-1.24,.64-1.65,1.07-.93-.17-1.03-.17-1.14-.18,.07-.37,.15-.86,.22-1.22-.58-.1-1.39-.08-1.96,.08-.08-.28-.19-.65-.27-.93,.07-.14,.15-.13,.24-.13q1.01-1.85,.76-3.08c-.11,0-.23-.01-.34-.02-.28-.11-.66-.25-.94-.36-.86,.25-.88,.25-.9,.25l-.28,.15c-1.4,.73-2.96,1.06-4.41,1.66,.29-.64,.75-1.45,1.14-2.04-.04,0-.09,0-.13-.01,1.29-1.54,3.35-1.45,4.97-2.3l.12-.09c.56,.13,1.31,.37,1.83,.62l.05,.04c.07,.72,.11,1.68,.06,2.4,2.15-.44,2.25-.87,2.53-2.02,.18-.12,.19-.12,.2-.12q1.1-.72,3.85-1l.1-.02c.45-.47,1.11-1.05,1.62-1.44,.1,.35,.23,.81,.33,1.15-3.82,4.54-3.73,5.4-3.66,6.1q3.31,.03,3.93,.31c.88,.28,.9,.28,.92,.28l.34-.3c.32-.02,.76-.05,1.08-.07,.22,.2,.51,.45,.73,.65,.45-.22,.5-.22,.54-.22q.32-1.13-.22-3.09c-.09,0-.18,0-.26,0-.12-.57-.55-1.31-1.01-1.66-.29,.05-.67,.12-.96,.17-.23-.18-.53-.42-.76-.6,.12,0,.23,0,.35,.01-.25-.15-.58-.36-.83-.51,.31-.61,.78-1.39,1.16-1.95,.28-.51,.24-.51,.19-.51,.41-.56,.93-1.33,1.31-1.91,.05,0,.1,0,.15,0-.01-.31-.03-.73-.04-1.05-1.44-.69-1.52-1.12-1.56-1.87-.08,0-.15,0-.23,0-.19-.6-.52-1.36-.83-1.9,.11,0,.21,0,.32,.01-.6-.19-1.45-.32-2.09-.3-.2-.64-.25-1.56-.15-2.22-.03-.31-.1-.31-.16-.31,0-.3,.02-.7,.03-.99-.05-.8,.03-.8,.11-.79-.07-.61-.16-1.42-.23-2.03-.13-.62-.2-.62-.27-.63-.31-.05-.72-.11-1.03-.15q-1.73,1.62-2.59,2.22c-.58-.12-1.34-.38-1.87-.65,.03-.33,.06-.77,.09-1.1,.23-.18,.53-.43,.76-.61,0,0,0,0-.01,0,.24-.19,.56-.44,.8-.64-.18-.28-.42-.66-.6-.94-.22-.15-.02-.14,.19-.12-.31-.13-.72-.3-1.03-.42-.4-1.23-.81-2.5-3.94-1.5q-.5,.42-3.4,3.96c-.3,.1-.69,.24-.99,.34-.24,3.89-.25,4.12-2.99,5.83-.23-.11-.54-.26-.77-.37,.07,0,.14,.02,.21,.02-.29-.07-.68-.17-.97-.24q-2.7,6.64-4.17,6.43c-.08-.28-.18-.66-.26-.94,.22-.26,.51-.61,.73-.87,.04,0,.08,0,.12,.01,.35-.57,.78-1.36,1.06-1.97-.05,0-.12,0-.18,0l.07-.15c-.23,.21-.54,.49-.76,.7,.02-.3,.05-.7,.08-1,.1-.53,.05-.54,0-.54,.29-.54,.62-1.28,.83-1.86,.07,0,.13,.02,.2,.03-.03-.3-.08-.69-.11-.99-1.33,.15-3.34,.38-3.9-2.31-.17-.27-.27-.29-.38-.31-.61-.12-.65-.13-.68-.13l-.33,.07-.06-.15c-.05-.01-.1-.02-.15-.03,.19-.28,.45-.65,.64-.93,.5-.82,.57-.81,.63-.79l.03-.26q.43-.75,1.82-2.27s-.07-.01-.11-.02c.45-.52,1.12-1.14,1.66-1.56,0,0,.02,0,.03,0,.96-.54,1.93-1.05,2.9-1.57,.81-.46,.8-.47,.79-.47,.6-.35,1.44-.76,2.09-1.01,.24,.16,.56,.38,.8,.54,.25-.15,.58-.35,.83-.5,.15-.11,.18-.1,.21-.1,.46-.4,1.07-.93,1.53-1.32q-.37,1.25-1.92,2.28,.57,.02,3.21-.57c-.12,.32-.27,.76-.39,1.08,.31,.08,.71,.19,1.02,.27,.24-.24,.57-.57,.81-.81,.16-.31,.23-.3,.29-.29l.04-.22c-.17-.57-.19-1.41-.03-1.99,.05-.26-.02-.27-.08-.27-.05,0-.09-.01-.14-.02-.02,0-.04,0-.06,0l-.29,.09c-.38-.18-.43-.19-.48-.2v-.13c.21-.23,.48-.53,.69-.76,1.87,.94,4.26-.54,5.14-2.01-.07-.26-.13-.27-.2-.28l.02-.1c1.45-.93,1.62-.91,2.91-.76,.3-.21,.31-.21,.31-.22,.03,0,.05,0,.08,0l.11-.09,.65-.48c-.2,.23-.47,.55-.67,.78,.09,.29,.2,.68,.29,.97-.87,.77-1.31,1.15-2.12,1.5l.62,.71s.03,0,.05,0q.64-.45,2.07-1.5c.07,.3,.18,.71,.25,1.01-.12,.06-.28,.14-.41,.21-1.33,.55-2.41,1.61-3.87,1.89-.2-.05-.35-.07-.5-.08-.67-.07-.69-.07-.71-.08l-.1,.07c-.94,.64-1.33,.9-2.32,2.45,3.03-.51,4.25,.07,4.63,2.22,.2-.13,.47-.3,.67-.43-.02,0-.03,0-.04,0,.41,.79,.76,1.47,1.98,1.37l.11,.02c.22-.23,.51-.55,.73-.78,.26,.17,.6,.39,.86,.56,.28-.13,.66-.31,.95-.45,.16-.41,.11-.42,.07-.42,.18-.46,.35-1.11,.32-1.6,.08,0,.16,0,.23,.01-.25-.56-.44-1.37-.48-1.98,.2-.39,.17-.39,.14-.39l.13-.11c.28,.09,.65,.22,.92,.32,.13,.28,.3,.66,.42,.94,.31,.06,.72,.13,1.03,.18h.03s.36-.22,.36-.22c.44-.24,1.01-.58,1.42-.87-.03,0-.05,0-.07,0,.23-.21,.53-.49,.76-.7-.16-.24-.38-.56-.55-.8,.15,0,.29,.01,.44,.02-.25-.17-.57-.4-.82-.58-.05-.33-.11-.77-.16-1.1-.29-.09-.67-.21-.96-.3-.39-.34-.44-.35-.49-.35l.04-.1c.18-.29,.41-.67,.59-.96,.24-.29,.28-.29,.31-.29,.17-.24,.39-.56,.56-.8-.23-.27-.53-.62-.76-.89-.72-.43-.82-.44-.91-.44l-.05-.11c-.09-.32-.2-.76-.29-1.08,.05-.17,.11-.16,.17-.16,.06-.29,.13-.67,.18-.96-1.24-.63-1.65-.84-3.96-.39,0,0,0,0-.01,0q-1.92,1.32-2.95,1.57c.25-.2,.59-.46,.85-.66,.39-.23,.41-.22,.43-.22l.38-.24c.52-.35,1.19-.86,1.67-1.27-1.46,.18-4.17,.53-6.73,3.5,.26,.19,.6,.45,.86,.65-.58,1.04-.68,1.23-1.88,1.66-.03,0-.05,0-.08-.01-.56,.24-1.27,.61-1.78,.94,.22-.27,.52-.62,.74-.89,.19-.18,.16-.19,.13-.19,.19-.23,.45-.55,.64-.79-.32,.06-.76,.14-1.09,.21,.16-.27,.36-.62,.51-.89,.1-.06,.14-.06,.17-.05,.4-.45,.95-1.03,1.37-1.46,.51-.5,.48-.51,.45-.51-2.35,.2-3.59,2.28-5.48,3.25-.54,.24-1.26,.58-1.79,.84,.4-.44,.96-1.01,1.44-1.36-.02,0-.04-.01-.07-.02,.3-.21,.71-.5,1.01-.72,.79-.52,.81-.52,.83-.51l.44-.27q-.21-.03-4.26,2.19c-.58-.07-1.35-.29-1.89-.52,.17-.27,.4-.62,.57-.89,.34-.17,.34-.17,.34-.17,1.72-.13,1.94-.23,3.12-.77,0,0,.01,0,.02-.01,0,0,.02,0,.03,0l.15-.08c.54-.31,1.19-.91,1.48-1.47,.49-.46,.47-.47,.45-.48,.5-.35,1.2-.78,1.73-1.07,.16-.06,.17-.06,.18-.06q1.85-.84,2.51-1.55l.27-.1s-.01,0-.02,0c.58-.21,1.34-.51,1.91-.75,.36-.14,.36-.14,.37-.13q1.86-.76,2.63-1.44c.11-.09,.07-.11,.04-.13-.73,.21-1.45,.46-2.19,.67,.29-.19,.67-.44,.96-.62,.51-.48,.5-.49,.49-.5l.17-.07c.47-.18,1.09-.42,1.53-.65-1.56,.21-2.79,.37-4.98,1.29,.3,0,.7,0,1,0-.63,.31-1.49,.71-2.13,.99,.29-.04,.67-.1,.95-.15-.56,.27-1.3,.61-1.86,.87-.03,.29-.07,.67-.1,.96q-.49,.22-4.4,2.26l.12-.08s-.03-.02-.05-.02c.58-.35,1.37-.79,1.96-1.12,.01,0,.03,.01,.04,.02,.27-.16,.64-.36,.91-.52-.28-.08-.65-.19-.93-.27,.51-.34,1.2-.8,1.71-1.14,.41-.24,.4-.25,.39-.26,.27-.12,.62-.29,.89-.42-.61-.13-2.46-.51-7.38,2.37,.22,.04,.51,.09,.72,.13,0,0,0,0,0,0l.52-.22c.27-.11,.62-.26,.89-.37-1.99,1.14-3.87,2.47-5.97,3.41,.39-.38,.93-.88,1.35-1.22,0,.01,.01,.02,.02,.03l.14-.09c.24-.17,.56-.41,.79-.58-.34-.03-.79-.06-1.12-.09-.03-.04-.03-.03-.03-.02,.31-.16,.72-.38,1.03-.54-.06,0-.14-.02-.2-.02,.25-.16,.59-.38,.84-.54-.29,.09-.68,.22-.97,.31,.49-.49,.46-.47,.42-.45-.58,.27-1.36,.62-1.95,.88,.57-.3,1.33-.71,1.9-1-.02,.01-.04,.03-.06,.04q1.22-.67,3.14-1.55c-1.56,.74-3.66,1.69-5.2,2.49-7.6,4.3-8.39,4.75-13.56,8.52l-4.48,3.55-.12,.1c-.83,.71-1.91,1.66-2.73,2.38h0c-4,3.76-5.26,5.11-7.01,7.1,.26-.27,.6-.62,.86-.89,.2-.21,.2-.2,.19-.19q1.62-1.72,2.35-2.46c.18-.18,.18-.19,.19-.2l.38-.38C22.39,36.31,.53,59.46,4.1,93.38c.15,.02,.35,.04,.5,.06,.06-.29,.13-.68,.19-.97-.03-.71-.06-.73-.1-.75-.06-.65-.15-1.52-.23-2.16-.03-.57,0-.54,.05-.52l-.06-.57q.02-.74,.28-3.24s-.06-.03-.09-.05c.03-.63,.04-1.47,.03-2.1,.04-.52,.07-.5,.1-.48q.05-1.38,.29-3.4c.02-.45,0-.47-.03-.49l.03-.57c.04-.61,.1-1.42,.17-2.03,.02,.02,.05,.04,.07,.05,.14-.67,.4-1.56,.67-2.19-.24,18.28-.43,32.72,4.19,37.63,.33-.04,.76-.1,1.09-.14,.48,.45,1,1.19,1.26,1.8,.27,.04,.64,.09,.91,.13,0,0,0-.02,0-.03-.02,0-.05-.01-.07-.01,.09-.28,.21-.66,.3-.94,.3-.1,.71-.23,1.02-.33q15.53,20.91,17.55,21.7c.19-.3,.45-.69,.64-.99,.08-.88,.14-.87,.2-.87,.26-.16,.6-.37,.86-.52q1.79,1.7,4.12,23.24c.14,1.26,33.51,35.51,33.84,35.77,4.29,3.47,8.73,7.07,20.17,7.94l1.37,.09h0c-.29-.02-.68-.05-.97-.07-.65-.06-.66-.06-.68-.06-.83-.13-.82-.13-.81-.13-.3-.08-.69-.18-.99-.25-.14-.06-.15-.06-.16-.06l-.73-.28s.04,0,.06,0c-1.39-.25-1.42-.26-2.26-.58,.31,.05,.73,.12,1.04,.17,.21-.12,.18-.12,.15-.12-.29-.12-.67-.28-.96-.41-.04-.04-.02-.04,0-.03l-.07-.15c.54,.03,1.26,.04,1.8-.03h0c-.26-.47-.28-.47-.3-.47l-.31-.56s.04,0,.07,0c-.51-.36-1.26-.75-1.84-.98-.06,0-.12,0-.18,0-.29-.13-.67-.3-.96-.42-.34-.31-.3-.3-.27-.3-.18-.25-.43-.59-.61-.84,2.36,1.72,2.41,1.75,4.12,1.6,.31-.65,.32-.65,.34-.65,.08-.3,.19-.7,.26-1-.07-.13-.11-.13-.15-.14l-.04-.11c-.24-.72-.2-.72-.17-.72,.17-.26,.4-.6,.56-.85,.09-.48,.06-.48,.02-.48v-.11c.21-.21,.49-.49,.69-.7,.11-.14,.13-.14,.16-.14-.05-.31-.11-.73-.15-1.04-.4-.5-.45-.5-.51-.5-.12-.29-.28-.68-.4-.97,.06-.12,.09-.12,.11-.12,2.24-2.14,3.9-2.36,5.81-2.61,.72-.34,.75-.34,.79-.34l.12-.15c.11-.31,.26-.72,.37-1.02,.21-.74,.17-.74,.12-.74,.16-.27,.37-.64,.52-.91,.29-.43,.34-.43,.38-.43,.26-.58,.42-1.45,.36-2.09-.06,0-.13,0-.19,0,.04-.31,.09-.73,.13-1.04,.14-.41,.2-.41,.25-.41,.16-.66,.28-1.57,.27-2.25-.08,0-.16,0-.23,0-.1-.33-.24-.77-.34-1.1,.02-.44,.09-.44,.15-.44,.16-1.25,.18-1.38,1.25-2.43-.02,0-.05,0-.07,0,.47-.5,1.09-1.17,1.54-1.69,.03,0,.07,0,.11,0q1.2-1.5,1.68-2.59c-.06,0-.12,0-.18,0,.11-.3,.26-.7,.38-1,.35-.77,.41-.78,.47-.78,.37-1.06,.61-1.77,.68-2.44h0Z"/>
            <path class="cls-2" d="M72.97,5.93c-.22,.07-.51,.17-.73,.24,0,0-.01,0-.02,0q-1.5,.51-1.62,.49c.07-.16,.26-.12,.37-.21-.21-.09-.4,.05-.6,.04,0,0,.49-.27,1.77-.59l.15-.04c.34-.07,.68-.15,1.01-.23,.94-.22,1.12-.25,1.2-.24q-.1,.07-1.54,.54h0Z"/>
            <path class="cls-2" d="M73.92,6.8c-1.41,.59-1.4,.56-1.35,.45,.12-.29,.2-.32,.97-.63,.3-.12,.32-.13,.36-.17-.22-.07-.44,.03-.66,0,0,0,0-.02-.01-.02,.19-.18,2.56-1.14,3.2-.95,.45,.21-2.42,1.33-2.47,1.33-.01,0-.03,0-.04-.01h0Z"/>
            <path class="cls-2" d="M67.59,11.5c-.41,.22-.44,.23-.94,.4q-1.49,.09-1.51,.08c-.15-.52,2.99-1.42,3.35-1.53,.07,.02,.14,.03,.21,.04q-.28,.38-.26,.41c-.04,.11-.33,.31-.85,.6h0Z"/>
            <path class="cls-2" d="M74.86,10.52c-.64,.39-1.43,.89-2.77,.12-.16-.09-.43-.24-1.37-.06-.12-.09-.27-.2-.38-.28q.17-.35,1.27-1.22c.25-.2,.31-.53,.53-.75,.06-.06,.22-.2,.64-.52,.63-.47,1.01-.76,2.63-1.32-.05,.02-.12,.06-.18,.09,.13-.05,.25-.1,.38-.14q-.24,.1-.7,.61s-.08-.02-.12-.03h-.01c-.12,.17-.19,.36-.33,.5-.1,.1-.19,.17-.75,.57,.03,0,.06,.01,.08,.02-.23,.16-1.37,.98-1.44,1.22,.2,.14,.43,.04,.64,.08,.22,.04,.43,.14,.66,.19,.12,.02,.23,.04,.34,.06,0,0,.65,.1,.95,.09,.17-.01,.32,.16,.29,.46-.06,0-.12-.01-.18-.02,0,.11,0,.23-.18,.33h0Z"/>
            <path class="cls-2" d="M115.59,21.74c.04,.13,.15,.61-.07,1.37-.01,0-.03,0-.04,0l-.04,.13c-.81,.13-1.24,.35-1.3,.66-.11,.62-1.5,1.56-2.23,1.34-.23-.07-.57-.36-.75-.64-.2-.31-.41-.63-1.28-.63-.26,0-.51,.13-.78,.1-.07,0-.24-.02-.45-.22-.21-.2-2.02-1.99-1.3-2.99,.06-.09,.28-.11,.36-.11,1.02,0,1.46,.3,2.12,.75,.24-.01,.47-.03,.71-.05,.67-.24,1.43-.25,2.03-.7,.16-.12,.27-.19,.4-.2,0,0,.67,0,1.84,.58,.09,0,.17-.01,.26-.02l.2,.13c.12,.13,.27,.32,.32,.49h0Z"/>
            <path class="cls-2" d="M37.72,106.13l-.31,.34c-.43,.47-1.61,.15-2.16-.28-.05-.04-.12-.1-.17-.15-.04-.05-.09-.11-.13-.16-.08-.1-.19-.24-.27-.35-.67-.82-1.46-1.53-2.13-2.35-.27-.32-.41-.72-.67-1.05-.46-.58-1.76-.69-2.91-.78q-2.47-.2-2.65-.3c-.16-.09-.47-.26-.47-1.02,0-.12,.02-.28,.03-.4,.06-.02,.15-.05,.21-.07v-.1c2.27-.84,2.95-.87,3.23-.88,.6,.08,1.51,.21,2.36,.85,.78,.59,1.14,1.5,1.73,2.23-.13-.01-.26-.03-.4-.04,1.07,1.26,1.89,1.87,2.46,1.83,.47-.03,.95,.55,1.32,1.06,.12,.01,.24,.02,.36,.03,.69,1.18,.6,1.52,.58,1.58h0Z"/>
            <path class="cls-2" d="M51.71,112.09c-.03,.31-.15,.52-.19,.58-.18,.28-.63,.67-.63,.67-.37,.22-.74,.16-1.01-.17-.64-.77-.58-2.94,.47-2.9,.84,.12,1.06,1.28,1.11,1.64,.09,0,.17,.01,.26,.02,0,.05,0,.12,0,.16h0Z"/>
            <path class="cls-2" d="M162.25,59.78c.18,.56,.11,1.16-.2,1.73-.07,.12-.29,.38-.81,.1-1.35-.73-1.73-3.37-1.03-3.64,.02,0,.06-.01,.08-.02,.33,.01,.73,.32,1.26,.96,.07-.01,.15-.03,.22-.04,.13,.2,.35,.52,.48,.92h0Z"/>
            <path class="cls-2" d="M154.97,61.35q.06,.21-.12,.64c-.21,.51-.91,.36-1.05,0-.07-.18,0-.68,.09-.91,0,0,.03-.07,.07-.13,.03-.04,.07-.06,.1-.1,.03-.04,.04-.1,.08-.15,.06-.07,.1-.09,.16-.1,.33,0,.59,.5,.66,.75h0Z"/>
            <path class="cls-2" d="M170.56,64.17c.24,.9-.47,1.58-1.05,1.25-.06-.03-.13-.09-.19-.13-.39-.29-.72-.66-1.11-.95-.32-.24-.71-.38-1.03-.63-.36-.28-.51-.45-.65-.6-.51-.59,.1-.81,.23-.84,.03,0,.06-.02,.09-.02,.14-.02,1.51-.11,1.87,0,.41,.12,.74,.49,1.05,.85,.07-.02,.13-.03,.2-.05l.23,.32c.13,.24,.29,.52,.36,.8h0Z"/>
            <path class="cls-2" d="M133.87,38.52c.17,.39,.19,.69,.2,.84-.04,0-.07,0-.11,.01,.02,.36,.04,.8-.27,1.37-.24,.44-1.23,1.51-1.34,1.6-.51,.38-1.05,.66-2-.24-.4-.38-1.01-1.14-.75-1.61,.13-.24,.17-.32,.06-.63-.26-.7-.91-1.15-1.14-1.87q-.12-.38,.23-.95c.15-.01,.3-.03,.45-.05,.23-.12,.25-.15,.3-.75,.04-.5,.08-.9,.81-.99,1.13-.06,1.75,.73,2.25,1.37,.07,0,.14-.02,.21-.02,.74,1.08,1.07,1.84,1.11,1.92h0Z"/>
            <path class="cls-2" d="M143.62,40.35c.26,1.11-.3,2.11-.59,2.27-.31,.18-.94,.07-1.9-.08-1.6-.26-1.76-.21-1.96-.03-.34,.3-.02,1.01-.61,1.11-.15,.03-.37-.15-.37-.15-.15-.14-.33-.44-.31-1.15-.9-.2-2.34,1-2.74-.23-.2-.62,.61-3.68,.88-4.23,.08-.16,.18-.39,.21-.57-.28-.35-.47-.43-1.97-.86-1.17-.33-2.1-.59-4.53-3.05-.97-.98-1.45-2.21-.63-2.17q1.05,.05,1.05-.23c0-.47,0-1.25,.57-1.4t.86,.28,2.08,.11c-.38,.05-.77,.1-1.16,.15,1.44-.06,2.64,0,2.8,1.46,.03,0,.06,0,.09-.01q-.05,1.82,.98,2.67c-.08,.01-.16,.02-.23,.03,.66,.54,1.31,1.11,1.96,1.66,.08-.01,.16-.02,.24-.03,1.16,.92,2.54,1.5,3.69,2.43-.09,.01-.17,.03-.26,.04,1.24,1.04,1.45,1.45,1.61,1.78,.03,0,.06,0,.09-.01,.02,0,.04,0,.06,0,.02,.07,.05,.17,.07,.24h0Z"/>
            <path class="cls-2" d="M187.61,138.51c-.49,1.27-1.57,3.44-2.35,4.52-.05,.03-.11,.07-.16,.11-.07-.13,.03-.5,.47-1.67-.03,.01-.06,.03-.08,.04,.3-.77,.53-1.34,.88-2.17,.03-.01,.05-.02,.08-.03,.18-.44,.3-.7,.42-.95,.5-.88,.94-.96,1-.83,.02,.04,.07,.16-.25,1h0Zm-5.39-88.45c.67,1.31-.53,1.9-.76,1.85q-.06-.01-1.34-.86c.05-.03,.1-.06,.15-.09-2.23-1.45-1.83,1.04-1.82,1.07q.19,.82,.13,.97c-.13,.29-.29,.33-.97,.47-.72,.16-.17,1.04-.5,1.48-.07-.02-.12-.03-.19-.17-.33-.63-.57-1.3-.9-1.94,.03,0,.06-.02,.09-.03-.55-1.04-1.43-1.89-1.83-3.02-.02,0-.03,.01-.05,.02-.23-.74-.34-1.51-.59-2.25,.02,0,.04-.01,.06-.02-.33-.95-.63-1.68-1.2-2.88l-.13-.31s-.03,.01-.04,.02c-.49-1.3-.22-1.38-.02-1.31,.27,.09,1.7,1.48,3.3,3.33,.2,.22,.24,.25,.33,.27,.06-.07,.23-1.34-1.09-3.46-.01,0-.03,.01-.04,.02-.69-1.3-.05-1.37-.04-1.37,.05,0,.31,.09,.68,1.06l.06,.31c.15,.56,.17,.63,.45,.89,.6,.55,1.37,.84,1.99,1.36,2.14,1.77,3.31,2.75,4.25,4.59h0Zm-3.16-9.59c.07,.1,.2,.31,.3,.57-.03,0-.08,.01-.12,.02-.14-.14-.27-.3-.41-.44,0,.44,2.08,3.28,2.1,3.31,0-.03,0-.07,0-.1,.18,.09,3.8,4.65,7.25,11.36,.29,.62,.55,1.15,.61,1.63-.07-.04-.74-.42-1.35-1.44,0,.01-.01,.03-.02,.04-.37-.63-.7-1.23-1.14-2.04,0-.01,.01-.03,.02-.04-.32-.58-.47-.88-.63-1.2,.04-.23,.05-.35-.95-2.38,0,0,0-.01-.01-.02,0,0,0,.02,0,.02-.51-.92-.79-1.31-1.36-1.63,.02-.04,.03-.08,.04-.12q-.27-.15-2.14-2.49s-.02,.03-.03,.05c-.49-.61-.89-1.1-1.32-1.62l-.13-.16s.02-.03,.03-.04c-.68-.84-1.23-1.63-2.05-2.93,0,0,0,0,0,.01q-.54-.89-.55-1.04c.15-.02,.29,.05,.43,.04,0,0,0-.01,.01-.02-.03-.16-.03-.22-.99-1.7,0,0,0,0,0,0-.18-.27-.36-.54-.54-.81,.6,0,2.93,3.1,2.95,3.13h0Zm-25.82-18.33c.07,.06,.13,.11,.2,.17l.2,.27c-.1,.05-.21,.1-.32,.14-.24-.05-1.09-.27-2.1-1.13l-.13-.14s.02,0,.03-.01c-.22-.19-.58-.51-.28-.52,.4,0,1.74,.68,2.39,1.21h0Zm-21.5-16.69s-.03-.01-.05-.02c-.62-.19-1.44-.45-2.06-.63,2.47,.85,6.6,2.28,10.37,3.93,0,0,0,0,0,0,.16,.09,.2,.11,.24,.13-.28-.09-.65-.21-.93-.3-.48-.15-.5-.17-.53-.19,.35,.31,.35,.31,.35,.3,.62,.29,1.45,.69,2.06,.99,.21,.11,.21,.11,.21,.11,.06,.08,.07,.09,.08,.1,.2,.2,.46,.47,.65,.68-.42-.07-.42-.05-.42-.03h0c.47,.4,1.04,.99,1.43,1.47,.56,.33,1.3,.77,1.84,1.12-.11-.04-.26-.1-.38-.14,0,0,.01-.02,.02-.03l-.13-.06c-.69-.37-1.61-.86-2.29-1.24-.72-.37-.73-.37-.73-.36l-.49-.22q.08,.08,5.51,3.29s-.01,.02-.02,.02c0,0,0,0,0,0-.53-.25-1.22-.59-1.74-.85q1.04,1.28,3.22,2.64c-.28,0-.65-.01-.93-.02,.09,.15,.2,.34,.28,.49-.64-.19-1.45-.55-2.02-.9-.44-.23-.45-.22-.47-.21-.28-.12-.64-.28-.92-.4,.28-.02,.66-.05,.94-.07-.42-1.62-.86-1.8-3.77-2.97-.3-.1-.31-.09-.32-.08-.28-.1-.64-.23-.92-.32-.47,.3-1.29,.4-1.83,.3-.74-.22-.71-.23-.68-.24q-.61-.16-4.3-1.05s-.08,.03-.12,.04c-.72-.15-1.68-.33-2.4-.44-.02,.3-.04,.69-.06,.99,.12,.19,.11,.19,.1,.19,.38,.61,.88,1.43,1.24,2.06,0,0,0,0,.01,0q8.84,17.33,11.98,16.14c-.09-.29-.22-.68-.31-.97-.09-.28-.06-.28-.04-.29-.08-.29-.2-.68-.28-.98,2.11,1.35,3.62,3.35,5.43,5.02,.99-.38,1.32-.5,2.19-1.94-.1-.31-.23-.72-.33-1.03-.47-.52-.51-.52-.54-.51-.39-.48-.87-1.16-1.17-1.7,.02,0,.04,0,.06-.01-.26-.56-.64-1.29-.94-1.83-.58-.72-.61-.71-.64-.71q-.8-.65-2.6-1.26c.06-.01,.11-.03,.17-.04q-1.16-.87-1.56-1.83c.09-.29,.22-.67,.31-.96-.25-.41-.6-.95-.91-1.31,.02,0,.03,0,.05-.01-.52-.52-1.26-1.17-1.85-1.61-.62-.43-.63-.43-.63-.43,.26-.15,.61-.35,.87-.49,1.3,.43,1.41,.46,2.48,2.29,.97,2.11,1.01,2.19,5.68,5.29,1.29-2.51,3.2-.97,4.23-.15q-1.75,1.18-2.04,1.77c.63,.33,1.46,.77,2.09,1.09-.25,.19-.58,.44-.83,.62,.15,1.3,.18,1.6,2.84,4.56-.22,.48-.32,.51-.42,.53-1.96-.32-2.75,.4-2.99,.72-.04,.01-.08,.02-.13,.03-.72,.32-.73,.32-.74,.32-.01,0-.02,0-.03,0-.01,0-.03,0-.04,0-.01,0-.03,0-.04,0-.01,0-.03,0-.04,0-.01,0-.03,0-.04,0-.01,0-.03,0-.04,0-.02,0-.03,0-.04,.01-.1,.02-.19,.04-.29,.06-.07,.02-.14,.03-.21,.04-.05,.01-.1,.02-.16,.03-.03,0-.07,.01-.1,.02-.02,0-.04,0-.06,.01-.01,0-.02,0-.03,0,0,0,0,0-.01,0h0l-.44,.25c-.45-.23-.52-.21-.59-.2-.25-.2-.58-.47-.83-.67-.65-.71-.76-.85-.87-1,.04,0,.08-.01,.11-.02q-1.34-1.85-2.41-2.06c-.16,.25-.37,.58-.53,.83q.86,2.27,3.85,4.8c-.07-.01-.17-.02-.24-.04-.58-.08-1.38-.04-1.95,.07-.12,.22-.29,.5-.41,.72l-.05,.11c-.06,.78-.12,1.81-.17,2.59-.2,.37-.38,.4-.57,.43-.32,.22-.76,.52-.97,.85,.17,.67,.42,1.56,.64,2.22q-.35,.4-3.58,2.28c-.29,.39-.29,.39-.3,.39-.48,.33-1.16,.69-1.69,.92,0,.3-.02,.7-.03,1,5.08,1.51,6.28,1.86,6.68,7.2-2.56,2.06-5.61,.54-8.37,1.13-.94,1.46-.39,10.26,3.52,13.51q2.4-.4,4.35,2.12c.2-.24,.47-.57,.66-.81,.07-.18,.12-.19,.17-.19,.06-.32,.14-.74,.2-1.05,.1-.06,.22-.14,.32-.2,3.02,.19,3.86-1.68,4.18-2.39,.15-.48,.12-.47,.09-.47,.27-.52,.6-1.22,.84-1.75-.38-.63-.28-.64-.18-.66-.83-1.14-.88-1.21-.26-3.04,.12-.39,.1-.38,.07-.38l.18-.52c.44-.43,1.13-.92,1.69-1.15,.04-.27,.09-.63,.13-.9,.05,0,.1-.02,.16-.02q-.53-2.57-.29-3.31,2.48,.47,3.27,.32c.18-.29,.43-.66,.59-.96,.21-.53,.68-1.18,1.13-1.53q2.67,.84,13.07,10.58c.42-.42,.38-.41,.33-.4-.27-.55-.66-1.28-.96-1.82-.12-.32-.07-.34-.01-.35-1.04-1.75-1.07-1.83-1.26-2.36,.26-.13,.6-.31,.86-.44,.01-.06,.03-.13,.05-.18l.12-.17c-.47-.26-.55-.23-.64-.21-1.73-1.21-2.04-1.38-2.67-1.72,.1-.02,.2-.05,.3-.07l-.18-.1c-1.63-.85-1.76-.96-3-2.02-.48-.51-.49-.51-.49-.51-.07,.01-.14,.03-.2,.04-.51-.45-1.23-1.02-1.79-1.4-.46-.4-.38-.42-.3-.43-.42-.42-.9-1.06-1.18-1.58,.72-.09,7.24-.41,16.18,16.85,.17-.24,.4-.56,.57-.8,.09-.52,.1-.53,.11-.53,.12-1.08,.19-2.16,.35-3.23-.09-.56-.13-.55-.16-.54l-.15-.51c-.29-.5-.75-1.13-1.14-1.55,.06-.02,.13-.04,.19-.06-.44-.37-1.02-.88-1.45-1.27,.09-.5,.21-1.17,.28-1.67v-.38s-.03,0-.04,0c.29-.03,.68-.08,.97-.11q3.19,5.65,6.03,7.48c.23-.18,.53-.41,.75-.59,1.07,.17,1.55,.25,2.06-1.35,2,1.74,3.11,8.36,3.53,10.85-.17,.24-.41,.57-.58,.81-.18-.23-.41-.54-.59-.76q-1.39,.6-1.89,5.4s-.01,0-.02,0c-.04,.01-.07,.03-.11,.04-.07,.02-.13,.04-.2,.07l-.08-.15c-.02-.61,.03-1.42,.11-2.02,.06-.4,.07-.4,.08-.4q.22-2.25-.43-3.16c-1.03,.17-2.02,.58-3.09,.51-.1,.03-.21,.06-.31,.1-.51-.28-1.22-.62-1.77-.83-.42,1.88-.08,3.79-.26,5.68-.22,.17-.52,.41-.74,.58-.28-.14-.66-.33-.95-.47-.09-.15,.02-.18,.12-.2-1.49-.89-3.08-1.62-4.54-2.56-.25-.02-.39,0-.53,.04q-2.86-1.02-3.71-1.67c.11-.02,.21-.04,.31-.06q-2.08-1.49-2.43-1.97c.35-.61,.88-1.38,1.3-1.94-.22-.53-.52-1.23-.74-1.75,.07-.01,.14-.03,.21-.04l-.19-.34c-4.37-6.08-14.93,2.78-15.03,2.87,.02,0,.03,0,.05,0l-.06,.06c-2.79,2.48-6.35,3.8-9.24,6.13l-.39,.37c-.55,.79-1.71,2.42-1.3,6.74,.08,.81,.18,1.93-.03,2.72-.15,.58-.99,.98-1.48,1.33q-2.11,1.52-6.61,13.58c-2.11,5.65,2.72,11.79-1.2,17.32l-.17,.16-.09,.06c.8,2.38,.02,5.09,1.51,7.33,1.91,2.86,6.02,3.37,7.32,6.89,2.42,6.58,4.92,7.39,5.63,7.48,.2-.23,.46-.53,.66-.75-.06,0-.12,.01-.17,.02l.17-.49c.27-.31,.52-.85,.88-1.03,2.48-1.18,5.35,0,7.81-1.3,2.25-1.2,2.97-4.35,5.92-4.66q.57-.06,3.84,5.07c1.27-.15,1.46-.18,3.39-2.33,1.63,1.42,1.68,1.6,1.59,2.6-.33,3.47-3.29,5.81-3.94,9.14-.59,3.01,.92,5.93,.4,8.94-.2,1.14-2.89,7.38-2.91,7.42-10.19,18.7-19.71,24.16-25.39,27.42,1.71-.41,4.49-1.53,6.92-2.79,0,0-.01,0-.02,0,.59-.32,1.36-.74,1.95-1.06,.29-.16,.3-.17,.31-.17,1.18-.67,1.77-1.01,3.28-1.92,0,0-.01,0-.02,0,.57-.35,1.33-.83,1.9-1.19,.3-.19,.31-.2,.32-.2,1.43-.94,1.54-1.02,2.52-1.73,.31-.24,.28-.23,.26-.22,.48-.38,1.12-.88,1.6-1.26,.02,0,.04-.02,.06-.03,1.04-.8,2.15-1.49,3.2-2.26,.42-.33,.43-.34,.44-.35-.02,0-.04,.02-.05,.03,.5-.42,1.15-.99,1.64-1.42,.02,0,.04-.02,.06-.03,.56-.51,1.3-1.2,1.85-1.71,.43-.43,.41-.42,.39-.41l.2-.2c.25-.23,.57-.54,.81-.77,.69-.63,.7-.64,.71-.64,1.12-1.05,1.24-1.16,2.36-2.23,.45-.43,.44-.43,.44-.43,.47-.46,1.1-1.06,1.57-1.52,.44-.43,.44-.43,.45-.44,.85-.86,.98-1,2.15-2.25,.61-.69,.61-.68,.6-.67,.43-.49,1-1.15,1.41-1.66,.21-.25,.22-.26,.23-.27l.3-.37c.41-.53,.96-1.24,1.36-1.77,.42-.58,.41-.57,.39-.56,.4-.55,.93-1.3,1.33-1.85,.01-.01,.02-.02,.04-.03q1.08-1.51,1.76-2.59c.12-.22,.1-.2,.08-.19,.28-.52,.65-1.22,.94-1.73,.02-.02,.04-.03,.06-.05,.37-.67,.86-1.56,1.23-2.22,.32-.62,.3-.6,.28-.59,.26-.52,.62-1.2,.9-1.71,.16-.28,.18-.29,.19-.3,.51-.95,1.02-1.91,1.53-2.86,.16-.32,.15-.31,.14-.3,.36-.6,.83-1.42,1.18-2.03,.19-.34,.2-.35,.21-.36,.55-1.05,.69-1.3,1.39-2.71,.39-.8,.38-.79,.37-.79l.07-.14c.28-.58,.64-1.35,.91-1.93,.16-.35,.17-.36,.18-.37,.72-1.61,.9-2.03,1.61-3.72,0,0,0,0-.01,.01,.24-.57,.57-1.34,.82-1.91,.33-.85,.33-.86,.33-.86,.53-1.47,.7-1.99,1.23-3.76,0,.01-.01,.02-.02,.04l.05-.16c.16-.58,.38-1.35,.54-1.92,.1-.37,.11-.38,.11-.39,.43-1.67,.55-2.13,.92-3.81,0,0,0,.02,0,.02,.13-.61,.3-1.42,.42-2.02,.11-.54,.11-.55,.11-.56,.29-1.57,.37-2.12,.56-3.32,.06-.41,.06-.4,.06-.39,.08-.57,.19-1.33,.26-1.9,.08-.61,.08-.62,.08-.64,.07-.6,.16-1.39,.22-1.99-.38,1.96-.42,2.14-.64,3.11,0,0,0,0,0-.01l-.02,.09c-.16,.66-.41,1.54-.64,2.18-.07-.28-.15-.65-.22-.93,.05-.33,.06-.34,.08-.35q.24-2,.29-3.14c-.02-.42-.04-.4-.05-.38-.01-.67-.04-1.57-.07-2.24,.02-.02,.04-.04,.07-.06-.09-1.09-.3-2.16-.45-3.24-.03,.02-.06,.04-.08,.06-.08-.77-.12-1.55-.24-2.32,.03-.02,.05-.04,.08-.06v-.11c-.19-1.34-.34-1.85-.82-3.14-.04,.03-.08,.05-.12,.08-.2-.52-.44-1.23-.59-1.76-.04-.45,0-.47,.03-.48q-.16-1.29-.33-3.15c-.08-.52-.1-.5-.13-.49-.06-.56-.14-1.3-.21-1.86-.06-.61-.03-.63-.01-.64-.27-1.73-.29-1.81-.65-3.08-.16-.43-.2-.41-.23-.39-.21-.68-.49-1.59-.7-2.27,.03-.02,.07-.04,.1-.05-.25-.78-.59-1.81-.85-2.58-.32-.79-.36-.77-.4-.75-.22-.58-.52-1.34-.75-1.91-.09-.32-.06-.34-.02-.36l-.17-.39c.15-.26,.34-.61,.49-.87,.06,.09,6.47,10.37,6.26,30.66,.84-1.1,1.48-2.67,1.46-11.78-.31-4.69-.94-10.93-1.62-15.58l.04,.22c.06,.33,.13,.77,.19,1.1,0,.25,0,.26,0,.28-.19-1.07-.26-1.43-.45-2.26,0-.02,0-.04,0-.06l-.02-.1q-.58-2.18-.8-3.11s0,.03-.01,.05c-.19-.63-.46-1.46-.67-2.08,0-.02,.01-.04,.02-.06q-.63-1.75-.95-2.75c-.14-.46-.14-.45-.15-.44-.17-.67-.4-1.57-.54-2.24,1.32,2.96,2.43,7.06,2.44,7.1-.96-3.52-2.29-8.21-3.47-11.67q-3.94-9.59-6.54-14.26c-5.23-8.57-5.33-8.74-8.64-12.95-6.45-7.59-6.57-7.73-10.54-11.44-7.32-6.3-7.6-6.55-12.29-9.73-7.47-4.64-8.25-5.12-13.96-7.81l-4.24-1.82-.23-.09q-1.48-.58-2.26-.87s.02,0,.02,0c-.64-.23-1.51-.53-2.15-.76h0Zm-.57-.21s-.03,0-.04-.02c-.39-.13-.78-.26-1.16-.38q3.32,1.13,4.42,1.55c-.61-.22-1.42-.52-2.03-.74l-.23-.08c-.32-.11-.63-.22-.95-.33h0Z"/>
            <path class="cls-2" d="M124.24,3.4c1.16,.29,2.03,.53,3.09,.85t0,0c.71,.22,.81,.26,.92,.3-.05,0-.11,0-.16,.02,.41,.41,3.85,1.67,5.86,2.38,0,0,0,0,0,.01,.72,.26,1.46,.47,2.18,.74,0,0,0-.01-.01-.02,1.5,.58,2.07,.89,2.28,1.02,0,0-1.79-.05-5.28-1.69l-.11-.05c-.89-.42-1.69-.75-2.41-1.05,0,0,0,0,0,0-1.9-.78-3.91-1.28-5.77-2.16,.06,0,.14,0,.19-.01-.12-.08-.21-.14-1.04-.35-.49-.12-.72-.18-.81-.22,.16,0,.16,0,.58,.09,0,0-.02,0-.03-.01l.51,.12h0Z"/>
            <path class="cls-2" d="M58.54,26.27c-.25,.28-.51,.39-.62,.43l-.19,.1c-.41,.15-.49-.11-.39-.36,.19-.46,.99-.82,1.29-.8,.36,.09-.02,.54-.09,.63h0Z"/>
            <path class="cls-2" d="M57.28,25.07q-.1,.1-.4,.26c-.49,.31-.75-.05-.67-.29q.05-.17,.67-.51c.24-.13,.36-.17,.5-.16,.32,.08,.08,.51-.11,.71h0Z"/>
            <path class="cls-2" d="M69.51,9.82c-.47,.24-.75,.23-.7,.07,.1-.33,1.55-.93,1.86-.89,.1,.04-.02,.17-.38,.4-.03,0-.06-.01-.08-.02-.34,.24-.64,.4-.69,.42h0Z"/>
            <path class="cls-2" d="M70.2,8.67c-.12,.05-.48,.21-1.11,.45,0,0-.01,0-.02,0q-1,.39-1.49,.37c.02-.06,.03-.07,.45-.29,.48-.25,.65-.34,.67-.44-.06-.05-.37-.11-.74,.02,0,0-.01,0-.02,0-.3,.11-.42,.16-1.22,.49-.74,.31-.99,.4-1.09,.41,0,0,0-.02-.01-.03,.38-.29,3.8-1.74,4.16-1.83l.07-.02q.34-.1,1.52,.14s.02,.03,.03,.04c-.2,.26-1.19,.7-1.2,.7h0Z"/>
            <path class="cls-2" d="M64.5,11.78q-.64,.39-2.11,1.07s.01,0,.02,0c-.29,.13-.59,.22-.88,.35l-.18,.07c-.22,.08-.26,.08-.31,.07,0-.07,.02-.26,2.19-1.56,.13-.08,.14-.1,.15-.13-.26-.12-.5,.2-.76,.03,.14-.25,1.46-.96,2.08-1.16l.05-.02c.13-.04,.28-.1,.41-.1,0,0,.03,0,.03,0,.13,0,.11,.21,.26,.19q.72-.13,.86-.1c.16,.06,.05,.16,0,.2-.12,.09-.38,.28-1.72,1.1-.02,0-.04-.01-.06-.02h0Z"/>
            <path class="cls-2" d="M50.05,127.67c.23-.07,.43-.09,.68-.08,.27,.02,.43,.06,.68,.16-.45-.03-.91-.06-1.36-.09h0Z"/>
            <path class="cls-2" d="M172.69,166.18l-1.4,1.5c.45-.48,1.84-1.96,3.23-3.57l-1.83,2.07h0Z"/>
            <path class="cls-2" d="M101.03,3.83c.05,.05,.12,.11,.17,.16,0,0-.02,0-.03,0q.32,.33,.71,1.92s-.01,0-.02,0c.07,.33,.1,.46,.16,.87,0,0,.01,0,.02,0v.06c.06,.57,.15,.82,.47,1.33-.03,0-.05,0-.08,0l.17,.25c.26,.33,.68,.42,.99,.69,.02,0,.03,0,.05,0q.05,.81,.37,1.59s-.05,0-.08,0c.14,.35,.19,.47,.49,1.11,.03,0,.07,0,.1,0,.05,.1,.1,.21,.15,.31,0,.02,.02,.04,.03,.07,.02,.09,0,.23-.04,.31-.75,.2-1.27-.85-2.08-.4-.04,.2-.1,.52,.52,1.58-.04,0-.08,0-.12,0l.11,.19c.21,.34,.4,.69,.6,1.03,.05,0,.09,0,.14,0l.13,.18c.81,1.27-.07,1.78-.55,1.67-.35-.08-.67-.6-.78-1.03-.08-.31-.22-.88-1.64-1.51-.03,.04-.08,.09-.12,.12,.05,.28,.06,.34,.16,.69,.04,0,.08,0,.12,0,.32,.93,1.3,1.2,1.87,1.88-.06,0-.11,0-.17,0q.5,.59,.49,.75s-.1,.07-.15,.1c-.31,.14-.66-.05-.97,.09-.76,.34-1.29,1.06-2.11,1.31-.61,.19-1.19,.15-2.05,.1q-.5-.03-.74,.05c-.2,.3-.31,.47-.64,1.29-.03,0-.06,0-.09,0-.08,.2-.16,.4-.25,.61q-.38,.96-1.8,.8-.95-.1-2.02,.68-1.5,1.1-1.46,1.76c-.05,0-.11,0-.16,0q.1,1.5-1.34,1.63c-.45,.74-.38,1.61-.6,2.4h-.14c-.24,.85-.45,1.04-1.12,1.68h.01l-.03,.02c-1.49,1.23-1.6,.32-1.78-1.35-.72-.09-1.05,.92-1.83,.66-.47-1.15-1.61-1.87-1.92-3.11-.49-1.96-.11-2.17,.51-2.53l-.02-.02c-2.31-1.01-.46-4,.24-4.71,.44-.45,.44-.46,.41-.67q-.27-.11-.72-.13c-.56-.96,1.7-3,2.21-2.85,.04,.02,.04,.02,.05,.02,.01,0,.02,0,.03,0,.02,0,.03,0,.05,0,.02,0,.04,0,.06,0,.03,0,.05,0,.08,0,.03,0,.06,0,.09,0,.03,0,.06,0,.09,0,.03,0,.07,0,.1,0,.04,.12,.13,.42-.7,1.65-.03,0-.06,0-.09,0l-.07,.12c-.07,.11-.14,.28-.17,.41,.09,.14,.22,.25,.3,.39,1.02-.39,1.28-3.23,.6-3.49-.33-.13-.35-.1-1.03,.59,.02,0,.03,0,.05,0-.74,.73-.9,.79-1.16,.9,.2-1.67,2.2-2.57,1.94-4.44-.17-1.26-.42-1.29-2.76-1.55-.01-.06-.03-.14-.05-.19,.13-.19,.29-.43,1.03-1.08-.12,.09-.28,.21-.4,.29-.1,.09-.08,.09-.06,.09-1.29,.96-1.64,1.22-2.18,1.3-.01-.06-.03-.13-.05-.18q.91-1.38,.9-1.44s-.11-.03-.15-.04c-.03,0-.04,0-.04,0h-.01s0,0,0,0h0s0,0,0,0c-.04-.02-.1-.06-.14-.08,.18-.33,.36-.51,.92-.65,.07-.02,.03-.02-.01-.03,2.64-.6,4.83-2.25,7.33-3.19,.11-.02,.15-.02,.18-.02v.03c.14,.05,.24,.09,.88-.41,.33-.25,1.9-1.07,2.57-.88-.02,.1-.04,.22-.05,.32,.21,.02,.3,.03,.73-.28,.53-.43,.97-.96,1.57-1.29l.02-.02c-.06,.1-.16,.22-.24,.3h-.03c-.07,.07-.15,.17-.22,.25,.44-.23,.75-.62,1.16-.9h.02s.09-.07,.13-.09c.07-.04,.07-.04,.08-.04,.19-.14,.36-.3,.54-.45h0c.06-.04,.13-.12,.16-.18,0,.05,.01,.11,.02,.15,0,.03,0,.03,0,.03,.05,.09,.12,.21,.16,.3-.15,.37-.3,.43-.47,.46,.03,.04,.08,.09,.11,.12q.16-.04,.45-.44h0s.08-.07,.11-.1c.04,.02,.1,.04,.15,.05,.04,.03,.04,.03,.04,.03,.23,.26,.26,.3,.63,.76,0,0-.01,0-.02,0q.17,.21,.49,.57s.03,0,.04,0c.3,.31,.58,.64,.88,.96-.02,0-.03,0-.05,0,.42,.43,.53,.5,.79,.55,.03-.06,.08-.13,.12-.19-.1-.37-.32-.69-.41-1.07,.36-.17,1.07,.33,1.18,.43h0Z"/>
            <path class="cls-2" d="M35.15,96.62c-.09,.71-1.09,.98-1.53,.41-.26-.34-.25-.86-.1-1.17,.07-.13,.13-.2,.16-.24,.13-.12,.42-.31,.43-.31,.12-.08,.29-.08,.4-.07,.27,.05,.43,.15,.64,.4-.15-.02-.3-.03-.45-.05,.5,.41,.45,.92,.44,1.02h0Z"/>
            <path class="cls-2" d="M47.21,111.89c-.07,.73-.21,.69-.3,.67q-.15,.18-.18,.18c-.12,0-.28-.23-.47-.5-.41-.59-.49-.57-.91-.39q-1.6,.69-1.92,.6c-.8-.23-1.09-1.1-1.78-1.47-.16-.08-.4-.15-.57-.18-.32-.04-.99-.13-2.17-.56,2.48-3.28,3.19-3.25,4.89-3.18,1.48,.14,2.45,1.34,2.9,2.04-.12,0-.24-.02-.36-.03,.51,.84,.68,1.47,.67,2.55,.08,0,.16,.01,.23,.02,0,.07-.01,.17-.02,.25h0Z"/>
            <path class="cls-2" d="M35.51,112.79c-.01,.76-.24,.94-.84,1.4-1.07,.39-1.38-1.83-.97-2.69q.1-.2,.63-.6c.07-.01,.11-.01,.16,0,.67,.12,1.02,1.19,1,1.91h0Z"/>
          </g>
        </g>
        <text class="cls-4" transform="translate(235.79 136.8)"><tspan x="0" y="0">GEOINFO.UZ</tspan></text>
      </g>
    </g>
  </g>
</svg>